<?xml version="1.0" encoding="UTF-8" ?>
<svg version="1.1" width="512" height="512" viewBox="0 0 512 512" xmlns="http://www.w3.org/2000/svg" shape-rendering="crispEdges">
  <defs>
    <style>
      @keyframes snapIn {
        0%   { opacity: 0; transform: scale(0); }
        50%  { opacity: 1; transform: scale(1.5); }
        75%  { opacity: 1; transform: scale(0.9); }
        100% { opacity: 1; transform: scale(1); }
      }

      @keyframes glowPulse {
        0%   { opacity: 0; }
        25%  { opacity: 0.8; }
        50%  { opacity: 0.2; }
        75%  { opacity: 0.35; }
        100% { opacity: 0.15; }
      }

      .asterisk {
        opacity: 0;
        transform-origin: 428px 246px;
        animation: snapIn 0.3s 1.2s cubic-bezier(0.34, 1.56, 0.64, 1) forwards;
      }

      .glow {
        opacity: 0;
        animation: glowPulse 2s 1.4s ease-in-out forwards;
      }
    </style>

    <filter id="blueGlow" x="-100%" y="-100%" width="300%" height="300%">
      <feGaussianBlur in="SourceGraphic" stdDeviation="5" result="blur" />
      <feColorMatrix in="blur" type="matrix"
        values="0 0 0 0 0
                0 0 0 0 0
                0 0 0 0 1
                0 0 0 2 0" />
    </filter>
  </defs>

  <g>    <rect x="343" y="237" width="6" height="1" fill="#DEDED8" />
    <rect x="84" y="238" width="7" height="1" fill="#DEDED8" />
    <rect x="210" y="238" width="2" height="1" fill="#DEDED8" />
    <rect x="341" y="238" width="3" height="1" fill="#DEDED8" />
    <rect x="348" y="238" width="3" height="1" fill="#DEDED8" />
    <rect x="358" y="238" width="7" height="1" fill="#DEDED8" />
    <rect x="82" y="239" width="4" height="1" fill="#DEDED8" />
    <rect x="90" y="239" width="3" height="1" fill="#DEDED8" />
    <rect x="100" y="239" width="8" height="1" fill="#DEDED8" />
    <rect x="207" y="239" width="4" height="1" fill="#DEDED8" />
    <rect x="340" y="239" width="2" height="1" fill="#DEDED8" />
    <rect x="350" y="239" width="2" height="1" fill="#DEDED8" />
    <rect x="355" y="239" width="6" height="1" fill="#DEDED8" />
    <rect x="364" y="239" width="2" height="1" fill="#DEDED8" />
    <rect x="81" y="240" width="3" height="1" fill="#DEDED8" />
    <rect x="92" y="240" width="2" height="1" fill="#DEDED8" />
    <rect x="97" y="240" width="6" height="1" fill="#DEDED8" />
    <rect x="107" y="240" width="2" height="1" fill="#DEDED8" />
    <rect x="204" y="240" width="6" height="1" fill="#DEDED8" />
    <rect x="339" y="240" width="2" height="1" fill="#DEDED8" />
    <rect x="353" y="240" width="6" height="1" fill="#DEDED8" />
    <rect x="365" y="240" width="2" height="4" fill="#DEDED8" />
    <rect x="80" y="241" width="2" height="2" fill="#DEDED8" />
    <rect x="96" y="241" width="5" height="1" fill="#DEDED8" />
    <rect x="108" y="241" width="2" height="3" fill="#DEDED8" />
    <rect x="201" y="241" width="7" height="1" fill="#DEDED8" />
    <rect x="338" y="241" width="2" height="2" fill="#DEDED8" />
    <rect x="352" y="241" width="5" height="1" fill="#DEDED8" />
    <rect x="79" y="242" width="1" height="6" fill="#DEDED8" />
    <rect x="94" y="242" width="5" height="1" fill="#DEDED8" />
    <rect x="197" y="242" width="5" height="1" fill="#DEDED8" />
    <rect x="203" y="242" width="4" height="1" fill="#DEDED8" />
    <rect x="351" y="242" width="5" height="1" fill="#DEDED8" />
    <rect x="80" y="243" width="1" height="6" fill="#DEDED8" />
    <rect x="93" y="243" width="5" height="1" fill="#DEDED8" />
    <rect x="193" y="243" width="5" height="1" fill="#DEDED8" />
    <rect x="202" y="243" width="4" height="1" fill="#DEDED8" />
    <rect x="337" y="243" width="2" height="6" fill="#DEDED8" />
    <rect x="349" y="243" width="6" height="1" fill="#DEDED8" />
    <rect x="92" y="244" width="5" height="1" fill="#DEDED8" />
    <rect x="107" y="244" width="2" height="2" fill="#DEDED8" />
    <rect x="191" y="244" width="3" height="1" fill="#DEDED8" />
    <rect x="201" y="244" width="4" height="2" fill="#DEDED8" />
    <rect x="348" y="244" width="5" height="1" fill="#DEDED8" />
    <rect x="364" y="244" width="2" height="2" fill="#DEDED8" />
    <rect x="91" y="245" width="4" height="1" fill="#DEDED8" />
    <rect x="158" y="245" width="4" height="1" fill="#DEDED8" />
    <rect x="189" y="245" width="3" height="1" fill="#DEDED8" />
    <rect x="200" y="245" width="1" height="7" fill="#DEDED8" />
    <rect x="347" y="245" width="5" height="1" fill="#DEDED8" />
    <rect x="376" y="245" width="4" height="1" fill="#DEDED8" />
    <rect x="408" y="245" width="4" height="1" fill="#DEDED8" />
    <rect x="90" y="246" width="4" height="1" fill="#DEDED8" />
    <rect x="106" y="246" width="2" height="1" fill="#DEDED8" />
    <rect x="157" y="246" width="4" height="2" fill="#DEDED8" />
    <rect x="187" y="246" width="4" height="1" fill="#DEDED8" />
    <rect x="199" y="246" width="1" height="7" fill="#DEDED8" />
    <rect x="201" y="246" width="3" height="1" fill="#DEDED8" />
    <rect x="346" y="246" width="5" height="1" fill="#DEDED8" />
    <rect x="363" y="246" width="2" height="1" fill="#DEDED8" />
    <rect x="375" y="246" width="4" height="2" fill="#DEDED8" />
    <rect x="407" y="246" width="4" height="2" fill="#DEDED8" />
    <rect x="89" y="247" width="4" height="2" fill="#DEDED8" />
    <rect x="104" y="247" width="3" height="1" fill="#DEDED8" />
    <rect x="186" y="247" width="4" height="1" fill="#DEDED8" />
    <rect x="201" y="247" width="2" height="2" fill="#DEDED8" />
    <rect x="345" y="247" width="5" height="1" fill="#DEDED8" />
    <rect x="362" y="247" width="2" height="2" fill="#DEDED8" />
    <rect x="81" y="248" width="1" height="2" fill="#DEDED8" />
    <rect x="88" y="248" width="1" height="11" fill="#DEDED8" />
    <rect x="103" y="248" width="2" height="1" fill="#DEDED8" />
    <rect x="156" y="248" width="4" height="1" fill="#DEDED8" />
    <rect x="186" y="248" width="3" height="1" fill="#DEDED8" />
    <rect x="198" y="248" width="1" height="7" fill="#DEDED8" />
    <rect x="345" y="248" width="4" height="1" fill="#DEDED8" />
    <rect x="374" y="248" width="4" height="1" fill="#DEDED8" />
    <rect x="406" y="248" width="4" height="1" fill="#DEDED8" />
    <rect x="82" y="249" width="1" height="2" fill="#DEDED8" />
    <rect x="87" y="249" width="1" height="9" fill="#DEDED8" />
    <rect x="89" y="249" width="3" height="1" fill="#DEDED8" />
    <rect x="100" y="249" width="4" height="1" fill="#DEDED8" />
    <rect x="155" y="249" width="4" height="2" fill="#DEDED8" />
    <rect x="185" y="249" width="3" height="6" fill="#DEDED8" />
    <rect x="197" y="249" width="1" height="8" fill="#DEDED8" />
    <rect x="201" y="249" width="1" height="1" fill="#DEDED8" />
    <rect x="338" y="249" width="2" height="2" fill="#DEDED8" />
    <rect x="344" y="249" width="4" height="2" fill="#DEDED8" />
    <rect x="360" y="249" width="3" height="1" fill="#DEDED8" />
    <rect x="373" y="249" width="4" height="2" fill="#DEDED8" />
    <rect x="405" y="249" width="4" height="2" fill="#DEDED8" />
    <rect x="83" y="250" width="3" height="1" fill="#DEDED8" />
    <rect x="89" y="250" width="2" height="2" fill="#DEDED8" />
    <rect x="96" y="250" width="5" height="1" fill="#DEDED8" />
    <rect x="234" y="250" width="2" height="1" fill="#DEDED8" />
    <rect x="321" y="250" width="2" height="1" fill="#DEDED8" />
    <rect x="343" y="250" width="1" height="7" fill="#DEDED8" />
    <rect x="359" y="250" width="2" height="1" fill="#DEDED8" />
    <rect x="85" y="251" width="2" height="4" fill="#DEDED8" />
    <rect x="91" y="251" width="6" height="1" fill="#DEDED8" />
    <rect x="154" y="251" width="4" height="2" fill="#DEDED8" />
    <rect x="196" y="251" width="1" height="8" fill="#DEDED8" />
    <rect x="231" y="251" width="4" height="2" fill="#DEDED8" />
    <rect x="318" y="251" width="4" height="2" fill="#DEDED8" />
    <rect x="339" y="251" width="2" height="1" fill="#DEDED8" />
    <rect x="342" y="251" width="1" height="9" fill="#DEDED8" />
    <rect x="344" y="251" width="3" height="1" fill="#DEDED8" />
    <rect x="357" y="251" width="3" height="1" fill="#DEDED8" />
    <rect x="372" y="251" width="4" height="2" fill="#DEDED8" />
    <rect x="404" y="251" width="4" height="2" fill="#DEDED8" />
    <rect x="89" y="252" width="1" height="8" fill="#DEDED8" />
    <rect x="153" y="252" width="1" height="7" fill="#DEDED8" />
    <rect x="195" y="252" width="1" height="9" fill="#DEDED8" />
    <rect x="340" y="252" width="2" height="19" fill="#DEDED8" />
    <rect x="344" y="252" width="2" height="1" fill="#DEDED8" />
    <rect x="355" y="252" width="3" height="1" fill="#DEDED8" />
    <rect x="371" y="252" width="1" height="7" fill="#DEDED8" />
    <rect x="403" y="252" width="1" height="7" fill="#DEDED8" />
    <rect x="103" y="253" width="3" height="1" fill="#DEDED8" />
    <rect x="154" y="253" width="3" height="1" fill="#DEDED8" />
    <rect x="230" y="253" width="4" height="2" fill="#DEDED8" />
    <rect x="317" y="253" width="4" height="2" fill="#DEDED8" />
    <rect x="344" y="253" width="1" height="2" fill="#DEDED8" />
    <rect x="352" y="253" width="4" height="1" fill="#DEDED8" />
    <rect x="372" y="253" width="3" height="1" fill="#DEDED8" />
    <rect x="404" y="253" width="3" height="1" fill="#DEDED8" />
    <rect x="102" y="254" width="3" height="1" fill="#DEDED8" />
    <rect x="152" y="254" width="1" height="7" fill="#DEDED8" />
    <rect x="154" y="254" width="2" height="2" fill="#DEDED8" />
    <rect x="194" y="254" width="1" height="8" fill="#DEDED8" />
    <rect x="204" y="254" width="2" height="1" fill="#DEDED8" />
    <rect x="229" y="254" width="1" height="7" fill="#DEDED8" />
    <rect x="316" y="254" width="1" height="7" fill="#DEDED8" />
    <rect x="345" y="254" width="8" height="1" fill="#DEDED8" />
    <rect x="370" y="254" width="1" height="7" fill="#DEDED8" />
    <rect x="372" y="254" width="2" height="2" fill="#DEDED8" />
    <rect x="402" y="254" width="1" height="7" fill="#DEDED8" />
    <rect x="404" y="254" width="2" height="2" fill="#DEDED8" />
    <rect x="86" y="255" width="1" height="2" fill="#DEDED8" />
    <rect x="101" y="255" width="3" height="1" fill="#DEDED8" />
    <rect x="186" y="255" width="3" height="1" fill="#DEDED8" />
    <rect x="193" y="255" width="1" height="9" fill="#DEDED8" />
    <rect x="203" y="255" width="2" height="1" fill="#DEDED8" />
    <rect x="230" y="255" width="3" height="1" fill="#DEDED8" />
    <rect x="317" y="255" width="3" height="1" fill="#DEDED8" />
    <rect x="339" y="255" width="1" height="15" fill="#DEDED8" />
    <rect x="99" y="256" width="4" height="1" fill="#DEDED8" />
    <rect x="151" y="256" width="1" height="6" fill="#DEDED8" />
    <rect x="154" y="256" width="1" height="1" fill="#DEDED8" />
    <rect x="187" y="256" width="3" height="1" fill="#DEDED8" />
    <rect x="201" y="256" width="3" height="1" fill="#DEDED8" />
    <rect x="228" y="256" width="1" height="7" fill="#DEDED8" />
    <rect x="230" y="256" width="2" height="2" fill="#DEDED8" />
    <rect x="315" y="256" width="1" height="7" fill="#DEDED8" />
    <rect x="317" y="256" width="2" height="2" fill="#DEDED8" />
    <rect x="369" y="256" width="1" height="6" fill="#DEDED8" />
    <rect x="372" y="256" width="1" height="1" fill="#DEDED8" />
    <rect x="401" y="256" width="1" height="6" fill="#DEDED8" />
    <rect x="404" y="256" width="1" height="1" fill="#DEDED8" />
    <rect x="98" y="257" width="4" height="2" fill="#DEDED8" />
    <rect x="150" y="257" width="1" height="7" fill="#DEDED8" />
    <rect x="188" y="257" width="5" height="1" fill="#DEDED8" />
    <rect x="199" y="257" width="3" height="1" fill="#DEDED8" />
    <rect x="226" y="257" width="2" height="2" fill="#DEDED8" />
    <rect x="232" y="257" width="3" height="1" fill="#DEDED8" />
    <rect x="313" y="257" width="2" height="2" fill="#DEDED8" />
    <rect x="319" y="257" width="3" height="1" fill="#DEDED8" />
    <rect x="338" y="257" width="1" height="12" fill="#DEDED8" />
    <rect x="352" y="257" width="6" height="1" fill="#DEDED8" />
    <rect x="368" y="257" width="1" height="7" fill="#DEDED8" />
    <rect x="400" y="257" width="1" height="7" fill="#DEDED8" />
    <rect x="90" y="258" width="2" height="2" fill="#DEDED8" />
    <rect x="96" y="258" width="2" height="8" fill="#DEDED8" />
    <rect x="108" y="258" width="6" height="1" fill="#DEDED8" />
    <rect x="125" y="258" width="6" height="1" fill="#DEDED8" />
    <rect x="142" y="258" width="6" height="1" fill="#DEDED8" />
    <rect x="190" y="258" width="3" height="1" fill="#DEDED8" />
    <rect x="197" y="258" width="3" height="1" fill="#DEDED8" />
    <rect x="204" y="258" width="4" height="1" fill="#DEDED8" />
    <rect x="212" y="258" width="4" height="1" fill="#DEDED8" />
    <rect x="225" y="258" width="1" height="1" fill="#DEDED8" />
    <rect x="230" y="258" width="1" height="2" fill="#DEDED8" />
    <rect x="240" y="258" width="5" height="1" fill="#DEDED8" />
    <rect x="257" y="258" width="4" height="1" fill="#DEDED8" />
    <rect x="265" y="258" width="3" height="1" fill="#DEDED8" />
    <rect x="274" y="258" width="4" height="1" fill="#DEDED8" />
    <rect x="282" y="258" width="4" height="1" fill="#DEDED8" />
    <rect x="299" y="258" width="5" height="1" fill="#DEDED8" />
    <rect x="312" y="258" width="1" height="1" fill="#DEDED8" />
    <rect x="317" y="258" width="1" height="2" fill="#DEDED8" />
    <rect x="350" y="258" width="3" height="1" fill="#DEDED8" />
    <rect x="356" y="258" width="3" height="1" fill="#DEDED8" />
    <rect x="379" y="258" width="4" height="1" fill="#DEDED8" />
    <rect x="389" y="258" width="4" height="1" fill="#DEDED8" />
    <rect x="92" y="259" width="4" height="1" fill="#DEDED8" />
    <rect x="98" y="259" width="3" height="2" fill="#DEDED8" />
    <rect x="106" y="259" width="4" height="1" fill="#DEDED8" />
    <rect x="113" y="259" width="2" height="8" fill="#DEDED8" />
    <rect x="123" y="259" width="4" height="1" fill="#DEDED8" />
    <rect x="130" y="259" width="2" height="8" fill="#DEDED8" />
    <rect x="140" y="259" width="4" height="1" fill="#DEDED8" />
    <rect x="147" y="259" width="3" height="7" fill="#DEDED8" />
    <rect x="192" y="259" width="1" height="6" fill="#DEDED8" />
    <rect x="203" y="259" width="2" height="1" fill="#DEDED8" />
    <rect x="206" y="259" width="2" height="7" fill="#DEDED8" />
    <rect x="211" y="259" width="2" height="1" fill="#DEDED8" />
    <rect x="214" y="259" width="3" height="6" fill="#DEDED8" />
    <rect x="227" y="259" width="1" height="5" fill="#DEDED8" />
    <rect x="238" y="259" width="4" height="1" fill="#DEDED8" />
    <rect x="243" y="259" width="3" height="1" fill="#DEDED8" />
    <rect x="256" y="259" width="2" height="1" fill="#DEDED8" />
    <rect x="259" y="259" width="2" height="6" fill="#DEDED8" />
    <rect x="263" y="259" width="4" height="1" fill="#DEDED8" />
    <rect x="273" y="259" width="2" height="1" fill="#DEDED8" />
    <rect x="276" y="259" width="2" height="7" fill="#DEDED8" />
    <rect x="281" y="259" width="2" height="1" fill="#DEDED8" />
    <rect x="284" y="259" width="3" height="6" fill="#DEDED8" />
    <rect x="297" y="259" width="4" height="1" fill="#DEDED8" />
    <rect x="302" y="259" width="3" height="1" fill="#DEDED8" />
    <rect x="314" y="259" width="1" height="5" fill="#DEDED8" />
    <rect x="349" y="259" width="2" height="2" fill="#DEDED8" />
    <rect x="358" y="259" width="2" height="2" fill="#DEDED8" />
    <rect x="367" y="259" width="1" height="7" fill="#DEDED8" />
    <rect x="378" y="259" width="4" height="2" fill="#DEDED8" />
    <rect x="388" y="259" width="4" height="1" fill="#DEDED8" />
    <rect x="399" y="259" width="1" height="7" fill="#DEDED8" />
    <rect x="406" y="259" width="2" height="8" fill="#DEDED8" />
    <rect x="81" y="260" width="6" height="1" fill="#DEDED8" />
    <rect x="105" y="260" width="4" height="1" fill="#DEDED8" />
    <rect x="122" y="260" width="4" height="1" fill="#DEDED8" />
    <rect x="139" y="260" width="4" height="1" fill="#DEDED8" />
    <rect x="191" y="260" width="1" height="6" fill="#DEDED8" />
    <rect x="202" y="260" width="2" height="1" fill="#DEDED8" />
    <rect x="210" y="260" width="2" height="1" fill="#DEDED8" />
    <rect x="217" y="260" width="1" height="2" fill="#DEDED8" />
    <rect x="226" y="260" width="1" height="6" fill="#DEDED8" />
    <rect x="237" y="260" width="4" height="1" fill="#DEDED8" />
    <rect x="244" y="260" width="2" height="2" fill="#DEDED8" />
    <rect x="255" y="260" width="2" height="1" fill="#DEDED8" />
    <rect x="263" y="260" width="3" height="2" fill="#DEDED8" />
    <rect x="272" y="260" width="2" height="1" fill="#DEDED8" />
    <rect x="280" y="260" width="2" height="1" fill="#DEDED8" />
    <rect x="287" y="260" width="1" height="2" fill="#DEDED8" />
    <rect x="296" y="260" width="4" height="1" fill="#DEDED8" />
    <rect x="303" y="260" width="2" height="2" fill="#DEDED8" />
    <rect x="313" y="260" width="1" height="6" fill="#DEDED8" />
    <rect x="337" y="260" width="1" height="7" fill="#DEDED8" />
    <rect x="360" y="260" width="1" height="6" fill="#DEDED8" />
    <rect x="387" y="260" width="4" height="2" fill="#DEDED8" />
    <rect x="405" y="260" width="1" height="4" fill="#DEDED8" />
    <rect x="408" y="260" width="1" height="4" fill="#DEDED8" />
    <rect x="79" y="261" width="3" height="1" fill="#DEDED8" />
    <rect x="86" y="261" width="3" height="1" fill="#DEDED8" />
    <rect x="98" y="261" width="2" height="2" fill="#DEDED8" />
    <rect x="104" y="261" width="4" height="1" fill="#DEDED8" />
    <rect x="112" y="261" width="1" height="2" fill="#DEDED8" />
    <rect x="115" y="261" width="1" height="5" fill="#DEDED8" />
    <rect x="121" y="261" width="4" height="1" fill="#DEDED8" />
    <rect x="129" y="261" width="1" height="2" fill="#DEDED8" />
    <rect x="132" y="261" width="1" height="5" fill="#DEDED8" />
    <rect x="138" y="261" width="4" height="1" fill="#DEDED8" />
    <rect x="173" y="261" width="7" height="1" fill="#DEDED8" />
    <rect x="190" y="261" width="1" height="6" fill="#DEDED8" />
    <rect x="201" y="261" width="2" height="1" fill="#DEDED8" />
    <rect x="205" y="261" width="1" height="7" fill="#DEDED8" />
    <rect x="209" y="261" width="2" height="1" fill="#DEDED8" />
    <rect x="225" y="261" width="1" height="7" fill="#DEDED8" />
    <rect x="236" y="261" width="4" height="1" fill="#DEDED8" />
    <rect x="243" y="261" width="1" height="3" fill="#DEDED8" />
    <rect x="254" y="261" width="2" height="1" fill="#DEDED8" />
    <rect x="258" y="261" width="1" height="7" fill="#DEDED8" />
    <rect x="262" y="261" width="1" height="5" fill="#DEDED8" />
    <rect x="271" y="261" width="2" height="1" fill="#DEDED8" />
    <rect x="275" y="261" width="1" height="7" fill="#DEDED8" />
    <rect x="279" y="261" width="2" height="1" fill="#DEDED8" />
    <rect x="295" y="261" width="4" height="1" fill="#DEDED8" />
    <rect x="302" y="261" width="1" height="3" fill="#DEDED8" />
    <rect x="312" y="261" width="1" height="7" fill="#DEDED8" />
    <rect x="348" y="261" width="2" height="3" fill="#DEDED8" />
    <rect x="359" y="261" width="1" height="7" fill="#DEDED8" />
    <rect x="366" y="261" width="1" height="6" fill="#DEDED8" />
    <rect x="377" y="261" width="4" height="1" fill="#DEDED8" />
    <rect x="398" y="261" width="1" height="6" fill="#DEDED8" />
    <rect x="78" y="262" width="2" height="1" fill="#DEDED8" />
    <rect x="87" y="262" width="2" height="1" fill="#DEDED8" />
    <rect x="95" y="262" width="1" height="6" fill="#DEDED8" />
    <rect x="103" y="262" width="4" height="1" fill="#DEDED8" />
    <rect x="120" y="262" width="4" height="1" fill="#DEDED8" />
    <rect x="137" y="262" width="4" height="1" fill="#DEDED8" />
    <rect x="172" y="262" width="2" height="1" fill="#DEDED8" />
    <rect x="179" y="262" width="2" height="1" fill="#DEDED8" />
    <rect x="200" y="262" width="2" height="1" fill="#DEDED8" />
    <rect x="208" y="262" width="2" height="1" fill="#DEDED8" />
    <rect x="235" y="262" width="4" height="2" fill="#DEDED8" />
    <rect x="244" y="262" width="1" height="1" fill="#DEDED8" />
    <rect x="253" y="262" width="2" height="1" fill="#DEDED8" />
    <rect x="261" y="262" width="1" height="2" fill="#DEDED8" />
    <rect x="263" y="262" width="2" height="5" fill="#DEDED8" />
    <rect x="270" y="262" width="2" height="1" fill="#DEDED8" />
    <rect x="278" y="262" width="2" height="1" fill="#DEDED8" />
    <rect x="294" y="262" width="4" height="2" fill="#DEDED8" />
    <rect x="303" y="262" width="1" height="1" fill="#DEDED8" />
    <rect x="365" y="262" width="1" height="7" fill="#DEDED8" />
    <rect x="376" y="262" width="4" height="2" fill="#DEDED8" />
    <rect x="386" y="262" width="4" height="2" fill="#DEDED8" />
    <rect x="397" y="262" width="1" height="7" fill="#DEDED8" />
    <rect x="77" y="263" width="2" height="2" fill="#DEDED8" />
    <rect x="88" y="263" width="2" height="2" fill="#DEDED8" />
    <rect x="98" y="263" width="1" height="1" fill="#DEDED8" />
    <rect x="102" y="263" width="4" height="2" fill="#DEDED8" />
    <rect x="119" y="263" width="4" height="2" fill="#DEDED8" />
    <rect x="136" y="263" width="4" height="2" fill="#DEDED8" />
    <rect x="171" y="263" width="2" height="1" fill="#DEDED8" />
    <rect x="180" y="263" width="2" height="3" fill="#DEDED8" />
    <rect x="189" y="263" width="1" height="5" fill="#DEDED8" />
    <rect x="199" y="263" width="2" height="1" fill="#DEDED8" />
    <rect x="204" y="263" width="1" height="7" fill="#DEDED8" />
    <rect x="208" y="263" width="1" height="1" fill="#DEDED8" />
    <rect x="213" y="263" width="1" height="6" fill="#DEDED8" />
    <rect x="224" y="263" width="1" height="6" fill="#DEDED8" />
    <rect x="234" y="263" width="1" height="10" fill="#DEDED8" />
    <rect x="242" y="263" width="1" height="2" fill="#DEDED8" />
    <rect x="252" y="263" width="2" height="1" fill="#DEDED8" />
    <rect x="257" y="263" width="1" height="7" fill="#DEDED8" />
    <rect x="269" y="263" width="2" height="1" fill="#DEDED8" />
    <rect x="274" y="263" width="1" height="7" fill="#DEDED8" />
    <rect x="278" y="263" width="1" height="1" fill="#DEDED8" />
    <rect x="283" y="263" width="1" height="6" fill="#DEDED8" />
    <rect x="293" y="263" width="1" height="10" fill="#DEDED8" />
    <rect x="301" y="263" width="1" height="2" fill="#DEDED8" />
    <rect x="311" y="263" width="1" height="6" fill="#DEDED8" />
    <rect x="385" y="263" width="1" height="7" fill="#DEDED8" />
    <rect x="94" y="264" width="1" height="5" fill="#DEDED8" />
    <rect x="118" y="264" width="1" height="8" fill="#DEDED8" />
    <rect x="135" y="264" width="1" height="9" fill="#DEDED8" />
    <rect x="146" y="264" width="1" height="10" fill="#DEDED8" />
    <rect x="156" y="264" width="2" height="1" fill="#DEDED8" />
    <rect x="170" y="264" width="2" height="1" fill="#DEDED8" />
    <rect x="188" y="264" width="1" height="5" fill="#DEDED8" />
    <rect x="198" y="264" width="2" height="1" fill="#DEDED8" />
    <rect x="203" y="264" width="1" height="7" fill="#DEDED8" />
    <rect x="222" y="264" width="2" height="7" fill="#DEDED8" />
    <rect x="233" y="264" width="1" height="8" fill="#DEDED8" />
    <rect x="235" y="264" width="3" height="3" fill="#DEDED8" />
    <rect x="240" y="264" width="2" height="1" fill="#DEDED8" />
    <rect x="250" y="264" width="3" height="1" fill="#DEDED8" />
    <rect x="256" y="264" width="1" height="7" fill="#DEDED8" />
    <rect x="267" y="264" width="3" height="1" fill="#DEDED8" />
    <rect x="273" y="264" width="1" height="7" fill="#DEDED8" />
    <rect x="292" y="264" width="1" height="8" fill="#DEDED8" />
    <rect x="294" y="264" width="3" height="3" fill="#DEDED8" />
    <rect x="299" y="264" width="2" height="1" fill="#DEDED8" />
    <rect x="309" y="264" width="2" height="7" fill="#DEDED8" />
    <rect x="320" y="264" width="2" height="1" fill="#DEDED8" />
    <rect x="347" y="264" width="2" height="1" fill="#DEDED8" />
    <rect x="364" y="264" width="1" height="7" fill="#DEDED8" />
    <rect x="374" y="264" width="5" height="2" fill="#DEDED8" />
    <rect x="386" y="264" width="3" height="1" fill="#DEDED8" />
    <rect x="394" y="264" width="3" height="8" fill="#DEDED8" />
    <rect x="412" y="264" width="2" height="1" fill="#DEDED8" />
    <rect x="76" y="265" width="2" height="5" fill="#DEDED8" />
    <rect x="85" y="265" width="4" height="2" fill="#DEDED8" />
    <rect x="93" y="265" width="1" height="5" fill="#DEDED8" />
    <rect x="101" y="265" width="4" height="3" fill="#DEDED8" />
    <rect x="116" y="265" width="2" height="1" fill="#DEDED8" />
    <rect x="119" y="265" width="3" height="3" fill="#DEDED8" />
    <rect x="133" y="265" width="2" height="1" fill="#DEDED8" />
    <rect x="136" y="265" width="3" height="2" fill="#DEDED8" />
    <rect x="155" y="265" width="2" height="1" fill="#DEDED8" />
    <rect x="169" y="265" width="2" height="5" fill="#DEDED8" />
    <rect x="178" y="265" width="2" height="2" fill="#DEDED8" />
    <rect x="187" y="265" width="1" height="5" fill="#DEDED8" />
    <rect x="212" y="265" width="1" height="9" fill="#DEDED8" />
    <rect x="214" y="265" width="2" height="1" fill="#DEDED8" />
    <rect x="221" y="265" width="1" height="8" fill="#DEDED8" />
    <rect x="232" y="265" width="1" height="2" fill="#DEDED8" />
    <rect x="238" y="265" width="3" height="1" fill="#DEDED8" />
    <rect x="249" y="265" width="2" height="1" fill="#DEDED8" />
    <rect x="259" y="265" width="1" height="2" fill="#DEDED8" />
    <rect x="266" y="265" width="2" height="1" fill="#DEDED8" />
    <rect x="282" y="265" width="1" height="9" fill="#DEDED8" />
    <rect x="284" y="265" width="2" height="1" fill="#DEDED8" />
    <rect x="291" y="265" width="1" height="3" fill="#DEDED8" />
    <rect x="297" y="265" width="3" height="1" fill="#DEDED8" />
    <rect x="308" y="265" width="1" height="2" fill="#DEDED8" />
    <rect x="319" y="265" width="2" height="1" fill="#DEDED8" />
    <rect x="348" y="265" width="2" height="3" fill="#DEDED8" />
    <rect x="363" y="265" width="1" height="9" fill="#DEDED8" />
    <rect x="373" y="265" width="1" height="8" fill="#DEDED8" />
    <rect x="384" y="265" width="1" height="9" fill="#DEDED8" />
    <rect x="386" y="265" width="2" height="2" fill="#DEDED8" />
    <rect x="408" y="265" width="1" height="2" fill="#DEDED8" />
    <rect x="410" y="265" width="3" height="1" fill="#DEDED8" />
    <rect x="96" y="266" width="1" height="1" fill="#DEDED8" />
    <rect x="145" y="266" width="1" height="8" fill="#DEDED8" />
    <rect x="147" y="266" width="2" height="1" fill="#DEDED8" />
    <rect x="154" y="266" width="2" height="1" fill="#DEDED8" />
    <rect x="177" y="266" width="1" height="1" fill="#DEDED8" />
    <rect x="180" y="266" width="1" height="1" fill="#DEDED8" />
    <rect x="202" y="266" width="1" height="7" fill="#DEDED8" />
    <rect x="206" y="266" width="1" height="1" fill="#DEDED8" />
    <rect x="211" y="266" width="1" height="8" fill="#DEDED8" />
    <rect x="214" y="266" width="1" height="2" fill="#DEDED8" />
    <rect x="220" y="266" width="1" height="3" fill="#DEDED8" />
    <rect x="231" y="266" width="1" height="2" fill="#DEDED8" />
    <rect x="238" y="266" width="1" height="1" fill="#DEDED8" />
    <rect x="248" y="266" width="2" height="1" fill="#DEDED8" />
    <rect x="255" y="266" width="1" height="7" fill="#DEDED8" />
    <rect x="265" y="266" width="2" height="1" fill="#DEDED8" />
    <rect x="272" y="266" width="1" height="7" fill="#DEDED8" />
    <rect x="276" y="266" width="1" height="1" fill="#DEDED8" />
    <rect x="281" y="266" width="1" height="8" fill="#DEDED8" />
    <rect x="284" y="266" width="1" height="2" fill="#DEDED8" />
    <rect x="290" y="266" width="1" height="3" fill="#DEDED8" />
    <rect x="297" y="266" width="1" height="1" fill="#DEDED8" />
    <rect x="307" y="266" width="1" height="2" fill="#DEDED8" />
    <rect x="318" y="266" width="2" height="1" fill="#DEDED8" />
    <rect x="358" y="266" width="1" height="4" fill="#DEDED8" />
    <rect x="372" y="266" width="1" height="2" fill="#DEDED8" />
    <rect x="374" y="266" width="4" height="1" fill="#DEDED8" />
    <rect x="383" y="266" width="1" height="8" fill="#DEDED8" />
    <rect x="393" y="266" width="1" height="2" fill="#DEDED8" />
    <rect x="405" y="266" width="1" height="4" fill="#DEDED8" />
    <rect x="409" y="266" width="2" height="1" fill="#DEDED8" />
    <rect x="92" y="267" width="1" height="4" fill="#DEDED8" />
    <rect x="100" y="267" width="1" height="3" fill="#DEDED8" />
    <rect x="112" y="267" width="2" height="2" fill="#DEDED8" />
    <rect x="117" y="267" width="1" height="3" fill="#DEDED8" />
    <rect x="129" y="267" width="2" height="2" fill="#DEDED8" />
    <rect x="134" y="267" width="1" height="5" fill="#DEDED8" />
    <rect x="136" y="267" width="2" height="7" fill="#DEDED8" />
    <rect x="144" y="267" width="1" height="6" fill="#DEDED8" />
    <rect x="147" y="267" width="1" height="2" fill="#DEDED8" />
    <rect x="153" y="267" width="2" height="1" fill="#DEDED8" />
    <rect x="186" y="267" width="1" height="4" fill="#DEDED8" />
    <rect x="219" y="267" width="1" height="3" fill="#DEDED8" />
    <rect x="230" y="267" width="1" height="2" fill="#DEDED8" />
    <rect x="235" y="267" width="2" height="6" fill="#DEDED8" />
    <rect x="247" y="267" width="2" height="1" fill="#DEDED8" />
    <rect x="289" y="267" width="1" height="3" fill="#DEDED8" />
    <rect x="294" y="267" width="2" height="6" fill="#DEDED8" />
    <rect x="306" y="267" width="1" height="2" fill="#DEDED8" />
    <rect x="317" y="267" width="2" height="1" fill="#DEDED8" />
    <rect x="362" y="267" width="1" height="6" fill="#DEDED8" />
    <rect x="371" y="267" width="1" height="2" fill="#DEDED8" />
    <rect x="374" y="267" width="3" height="2" fill="#DEDED8" />
    <rect x="382" y="267" width="1" height="5" fill="#DEDED8" />
    <rect x="386" y="267" width="1" height="1" fill="#DEDED8" />
    <rect x="392" y="267" width="1" height="2" fill="#DEDED8" />
    <rect x="406" y="267" width="1" height="1" fill="#DEDED8" />
    <rect x="101" y="268" width="3" height="4" fill="#DEDED8" />
    <rect x="119" y="268" width="2" height="5" fill="#DEDED8" />
    <rect x="152" y="268" width="2" height="2" fill="#DEDED8" />
    <rect x="185" y="268" width="1" height="4" fill="#DEDED8" />
    <rect x="201" y="268" width="1" height="6" fill="#DEDED8" />
    <rect x="210" y="268" width="1" height="5" fill="#DEDED8" />
    <rect x="229" y="268" width="1" height="2" fill="#DEDED8" />
    <rect x="246" y="268" width="2" height="1" fill="#DEDED8" />
    <rect x="254" y="268" width="1" height="6" fill="#DEDED8" />
    <rect x="271" y="268" width="1" height="6" fill="#DEDED8" />
    <rect x="280" y="268" width="1" height="5" fill="#DEDED8" />
    <rect x="305" y="268" width="1" height="2" fill="#DEDED8" />
    <rect x="308" y="268" width="1" height="5" fill="#DEDED8" />
    <rect x="316" y="268" width="2" height="1" fill="#DEDED8" />
    <rect x="342" y="268" width="1" height="5" fill="#DEDED8" />
    <rect x="357" y="268" width="1" height="3" fill="#DEDED8" />
    <rect x="370" y="268" width="1" height="2" fill="#DEDED8" />
    <rect x="381" y="268" width="1" height="3" fill="#DEDED8" />
    <rect x="391" y="268" width="1" height="2" fill="#DEDED8" />
    <rect x="404" y="268" width="1" height="3" fill="#DEDED8" />
    <rect x="91" y="269" width="1" height="3" fill="#DEDED8" />
    <rect x="111" y="269" width="2" height="1" fill="#DEDED8" />
    <rect x="128" y="269" width="2" height="1" fill="#DEDED8" />
    <rect x="143" y="269" width="1" height="2" fill="#DEDED8" />
    <rect x="151" y="269" width="1" height="3" fill="#DEDED8" />
    <rect x="171" y="269" width="1" height="3" fill="#DEDED8" />
    <rect x="184" y="269" width="1" height="3" fill="#DEDED8" />
    <rect x="200" y="269" width="1" height="5" fill="#DEDED8" />
    <rect x="218" y="269" width="1" height="2" fill="#DEDED8" />
    <rect x="228" y="269" width="1" height="2" fill="#DEDED8" />
    <rect x="245" y="269" width="2" height="1" fill="#DEDED8" />
    <rect x="253" y="269" width="1" height="5" fill="#DEDED8" />
    <rect x="270" y="269" width="1" height="5" fill="#DEDED8" />
    <rect x="288" y="269" width="1" height="2" fill="#DEDED8" />
    <rect x="304" y="269" width="1" height="2" fill="#DEDED8" />
    <rect x="315" y="269" width="2" height="1" fill="#DEDED8" />
    <rect x="356" y="269" width="1" height="2" fill="#DEDED8" />
    <rect x="369" y="269" width="1" height="2" fill="#DEDED8" />
    <rect x="374" y="269" width="2" height="2" fill="#DEDED8" />
    <rect x="380" y="269" width="1" height="3" fill="#DEDED8" />
    <rect x="390" y="269" width="1" height="2" fill="#DEDED8" />
    <rect x="403" y="269" width="1" height="3" fill="#DEDED8" />
    <rect x="77" y="270" width="2" height="2" fill="#DEDED8" />
    <rect x="90" y="270" width="1" height="3" fill="#DEDED8" />
    <rect x="110" y="270" width="2" height="1" fill="#DEDED8" />
    <rect x="127" y="270" width="2" height="1" fill="#DEDED8" />
    <rect x="142" y="270" width="1" height="2" fill="#DEDED8" />
    <rect x="150" y="270" width="1" height="3" fill="#DEDED8" />
    <rect x="152" y="270" width="1" height="1" fill="#DEDED8" />
    <rect x="170" y="270" width="1" height="1" fill="#DEDED8" />
    <rect x="183" y="270" width="1" height="3" fill="#DEDED8" />
    <rect x="217" y="270" width="1" height="2" fill="#DEDED8" />
    <rect x="227" y="270" width="1" height="2" fill="#DEDED8" />
    <rect x="244" y="270" width="2" height="1" fill="#DEDED8" />
    <rect x="287" y="270" width="1" height="2" fill="#DEDED8" />
    <rect x="303" y="270" width="1" height="2" fill="#DEDED8" />
    <rect x="314" y="270" width="2" height="1" fill="#DEDED8" />
    <rect x="343" y="270" width="1" height="3" fill="#DEDED8" />
    <rect x="355" y="270" width="1" height="2" fill="#DEDED8" />
    <rect x="368" y="270" width="1" height="2" fill="#DEDED8" />
    <rect x="379" y="270" width="1" height="3" fill="#DEDED8" />
    <rect x="389" y="270" width="1" height="2" fill="#DEDED8" />
    <rect x="402" y="270" width="1" height="2" fill="#DEDED8" />
    <rect x="89" y="271" width="1" height="2" fill="#DEDED8" />
    <rect x="104" y="271" width="1" height="3" fill="#DEDED8" />
    <rect x="109" y="271" width="2" height="1" fill="#DEDED8" />
    <rect x="121" y="271" width="1" height="3" fill="#DEDED8" />
    <rect x="126" y="271" width="2" height="1" fill="#DEDED8" />
    <rect x="141" y="271" width="1" height="2" fill="#DEDED8" />
    <rect x="149" y="271" width="1" height="2" fill="#DEDED8" />
    <rect x="172" y="271" width="1" height="2" fill="#DEDED8" />
    <rect x="181" y="271" width="2" height="2" fill="#DEDED8" />
    <rect x="199" y="271" width="1" height="3" fill="#DEDED8" />
    <rect x="216" y="271" width="1" height="2" fill="#DEDED8" />
    <rect x="222" y="271" width="1" height="3" fill="#DEDED8" />
    <rect x="226" y="271" width="1" height="2" fill="#DEDED8" />
    <rect x="243" y="271" width="2" height="1" fill="#DEDED8" />
    <rect x="252" y="271" width="1" height="3" fill="#DEDED8" />
    <rect x="269" y="271" width="1" height="3" fill="#DEDED8" />
    <rect x="286" y="271" width="1" height="2" fill="#DEDED8" />
    <rect x="302" y="271" width="1" height="2" fill="#DEDED8" />
    <rect x="309" y="271" width="1" height="3" fill="#DEDED8" />
    <rect x="313" y="271" width="2" height="1" fill="#DEDED8" />
    <rect x="341" y="271" width="1" height="1" fill="#DEDED8" />
    <rect x="344" y="271" width="1" height="3" fill="#DEDED8" />
    <rect x="354" y="271" width="1" height="2" fill="#DEDED8" />
    <rect x="367" y="271" width="1" height="2" fill="#DEDED8" />
    <rect x="374" y="271" width="1" height="3" fill="#DEDED8" />
    <rect x="378" y="271" width="1" height="2" fill="#DEDED8" />
    <rect x="388" y="271" width="1" height="2" fill="#DEDED8" />
    <rect x="401" y="271" width="1" height="2" fill="#DEDED8" />
    <rect x="78" y="272" width="2" height="1" fill="#DEDED8" />
    <rect x="88" y="272" width="1" height="2" fill="#DEDED8" />
    <rect x="102" y="272" width="2" height="1" fill="#DEDED8" />
    <rect x="105" y="272" width="1" height="2" fill="#DEDED8" />
    <rect x="108" y="272" width="2" height="1" fill="#DEDED8" />
    <rect x="122" y="272" width="1" height="2" fill="#DEDED8" />
    <rect x="125" y="272" width="2" height="1" fill="#DEDED8" />
    <rect x="138" y="272" width="1" height="2" fill="#DEDED8" />
    <rect x="140" y="272" width="1" height="2" fill="#DEDED8" />
    <rect x="148" y="272" width="1" height="2" fill="#DEDED8" />
    <rect x="173" y="272" width="2" height="1" fill="#DEDED8" />
    <rect x="179" y="272" width="2" height="2" fill="#DEDED8" />
    <rect x="214" y="272" width="2" height="1" fill="#DEDED8" />
    <rect x="223" y="272" width="1" height="2" fill="#DEDED8" />
    <rect x="225" y="272" width="1" height="2" fill="#DEDED8" />
    <rect x="237" y="272" width="1" height="2" fill="#DEDED8" />
    <rect x="241" y="272" width="3" height="1" fill="#DEDED8" />
    <rect x="284" y="272" width="2" height="1" fill="#DEDED8" />
    <rect x="296" y="272" width="1" height="2" fill="#DEDED8" />
    <rect x="300" y="272" width="2" height="1" fill="#DEDED8" />
    <rect x="310" y="272" width="1" height="2" fill="#DEDED8" />
    <rect x="312" y="272" width="2" height="1" fill="#DEDED8" />
    <rect x="345" y="272" width="1" height="2" fill="#DEDED8" />
    <rect x="351" y="272" width="3" height="1" fill="#DEDED8" />
    <rect x="364" y="272" width="1" height="2" fill="#DEDED8" />
    <rect x="366" y="272" width="1" height="2" fill="#DEDED8" />
    <rect x="375" y="272" width="1" height="2" fill="#DEDED8" />
    <rect x="377" y="272" width="1" height="2" fill="#DEDED8" />
    <rect x="387" y="272" width="1" height="2" fill="#DEDED8" />
    <rect x="395" y="272" width="2" height="1" fill="#DEDED8" />
    <rect x="399" y="272" width="2" height="1" fill="#DEDED8" />
    <rect x="79" y="273" width="9" height="1" fill="#DEDED8" />
    <rect x="103" y="273" width="1" height="1" fill="#DEDED8" />
    <rect x="106" y="273" width="3" height="1" fill="#DEDED8" />
    <rect x="120" y="273" width="1" height="1" fill="#DEDED8" />
    <rect x="123" y="273" width="3" height="1" fill="#DEDED8" />
    <rect x="139" y="273" width="1" height="1" fill="#DEDED8" />
    <rect x="147" y="273" width="1" height="1" fill="#DEDED8" />
    <rect x="174" y="273" width="5" height="1" fill="#DEDED8" />
    <rect x="198" y="273" width="1" height="1" fill="#DEDED8" />
    <rect x="213" y="273" width="2" height="1" fill="#DEDED8" />
    <rect x="224" y="273" width="1" height="1" fill="#DEDED8" />
    <rect x="236" y="273" width="1" height="1" fill="#DEDED8" />
    <rect x="238" y="273" width="4" height="1" fill="#DEDED8" />
    <rect x="251" y="273" width="1" height="1" fill="#DEDED8" />
    <rect x="268" y="273" width="1" height="1" fill="#DEDED8" />
    <rect x="283" y="273" width="2" height="1" fill="#DEDED8" />
    <rect x="295" y="273" width="1" height="1" fill="#DEDED8" />
    <rect x="297" y="273" width="4" height="1" fill="#DEDED8" />
    <rect x="311" y="273" width="2" height="1" fill="#DEDED8" />
    <rect x="346" y="273" width="6" height="1" fill="#DEDED8" />
    <rect x="365" y="273" width="1" height="1" fill="#DEDED8" />
    <rect x="376" y="273" width="1" height="1" fill="#DEDED8" />
    <rect x="385" y="273" width="2" height="1" fill="#DEDED8" />
    <rect x="396" y="273" width="4" height="1" fill="#DEDED8" />
  </g>

  <g class="glow" filter="url(#blueGlow)">    <rect x="426" y="239" width="4" height="2" fill="#0000FF" />
    <rect x="426" y="241" width="1" height="1" fill="#000000" />
    <rect x="427" y="241" width="2" height="9" fill="#0000FF" />
    <rect x="429" y="241" width="1" height="1" fill="#000000" />
    <rect x="426" y="242" width="1" height="2" fill="#0000FF" />
    <rect x="429" y="242" width="1" height="2" fill="#0000FF" />
    <rect x="421" y="243" width="2" height="3" fill="#0000FF" />
    <rect x="433" y="243" width="2" height="3" fill="#0000FF" />
    <rect x="420" y="244" width="1" height="2" fill="#0000FF" />
    <rect x="423" y="244" width="2" height="3" fill="#0000FF" />
    <rect x="431" y="244" width="2" height="3" fill="#0000FF" />
    <rect x="435" y="244" width="1" height="2" fill="#0000FF" />
    <rect x="425" y="245" width="2" height="2" fill="#0000FF" />
    <rect x="429" y="245" width="2" height="2" fill="#0000FF" />
    <rect x="422" y="246" width="1" height="1" fill="#0000FF" />
    <rect x="433" y="246" width="1" height="1" fill="#0000FF" />
    <rect x="426" y="247" width="1" height="4" fill="#0000FF" />
    <rect x="429" y="247" width="1" height="4" fill="#0000FF" />
    <rect x="425" y="248" width="1" height="4" fill="#0000FF" />
    <rect x="430" y="248" width="1" height="4" fill="#0000FF" />
    <rect x="424" y="249" width="1" height="5" fill="#0000FF" />
    <rect x="431" y="249" width="1" height="5" fill="#0000FF" />
    <rect x="423" y="250" width="1" height="3" fill="#0000FF" />
    <rect x="432" y="250" width="1" height="3" fill="#0000FF" />
    <rect x="422" y="251" width="1" height="1" fill="#0000FF" />
    <rect x="433" y="251" width="1" height="1" fill="#0000FF" />
  </g>

  <g class="asterisk">    <rect x="426" y="239" width="4" height="2" fill="#0000FF" />
    <rect x="426" y="241" width="1" height="1" fill="#000000" />
    <rect x="427" y="241" width="2" height="9" fill="#0000FF" />
    <rect x="429" y="241" width="1" height="1" fill="#000000" />
    <rect x="426" y="242" width="1" height="2" fill="#0000FF" />
    <rect x="429" y="242" width="1" height="2" fill="#0000FF" />
    <rect x="421" y="243" width="2" height="3" fill="#0000FF" />
    <rect x="433" y="243" width="2" height="3" fill="#0000FF" />
    <rect x="420" y="244" width="1" height="2" fill="#0000FF" />
    <rect x="423" y="244" width="2" height="3" fill="#0000FF" />
    <rect x="431" y="244" width="2" height="3" fill="#0000FF" />
    <rect x="435" y="244" width="1" height="2" fill="#0000FF" />
    <rect x="425" y="245" width="2" height="2" fill="#0000FF" />
    <rect x="429" y="245" width="2" height="2" fill="#0000FF" />
    <rect x="422" y="246" width="1" height="1" fill="#0000FF" />
    <rect x="433" y="246" width="1" height="1" fill="#0000FF" />
    <rect x="426" y="247" width="1" height="4" fill="#0000FF" />
    <rect x="429" y="247" width="1" height="4" fill="#0000FF" />
    <rect x="425" y="248" width="1" height="4" fill="#0000FF" />
    <rect x="430" y="248" width="1" height="4" fill="#0000FF" />
    <rect x="424" y="249" width="1" height="5" fill="#0000FF" />
    <rect x="431" y="249" width="1" height="5" fill="#0000FF" />
    <rect x="423" y="250" width="1" height="3" fill="#0000FF" />
    <rect x="432" y="250" width="1" height="3" fill="#0000FF" />
    <rect x="422" y="251" width="1" height="1" fill="#0000FF" />
    <rect x="433" y="251" width="1" height="1" fill="#0000FF" />
  </g>
</svg>